<svg width="146" height="148" viewBox="0 0 146 148" fill="none" xmlns="http://www.w3.org/2000/svg">
<path d="M72.8672 148C68.0438 148 63.2094 147.522 58.5004 146.578C54.9411 145.872 51.4307 144.896 48.0741 143.68C47.2063 143.368 46.3061 143.025 45.408 142.661C45.2123 142.582 45.022 142.499 44.8325 142.418L44.2735 142.181C43.8103 141.988 43.3472 141.794 42.8902 141.59L42.347 141.336C41.6605 141.021 40.9761 140.693 40.2972 140.355L39.6465 140.026C39.0166 139.703 38.4018 139.378 37.7938 139.045L37.2549 138.751C36.416 138.282 35.6565 137.84 34.93 137.399L34.7777 137.303C34.067 136.867 33.3847 136.431 32.7085 135.986L32.0827 135.566C31.532 135.195 30.9957 134.823 30.465 134.443C30.465 134.443 30.0122 134.121 29.8509 134.004C29.1472 133.49 28.4476 132.966 27.7597 132.425C27.5681 132.272 27.393 132.132 27.22 131.989C27.1442 131.931 27.0642 131.868 26.9905 131.807C26.2061 131.175 25.4286 130.518 24.6718 129.847C24.5678 129.786 24.4671 129.72 24.3672 129.65C24.1315 129.484 23.8992 129.29 23.6786 129.072C23.5001 128.898 23.3402 128.71 23.1989 128.513C20.2227 125.749 17.4871 122.754 15.0581 119.598C14.8879 119.386 14.6811 119.11 14.4764 118.835C13.0614 116.964 11.7304 115.003 10.518 113.002C10.4884 112.953 10.2223 112.498 10.1782 112.42C9.92939 112.006 9.68401 111.588 9.44484 111.169C9.17879 110.884 8.95134 110.56 8.768 110.204L8.71424 110.112C8.53848 109.792 8.40683 109.457 8.3186 109.113C3.55724 100.097 0.811948 90.3552 0.158536 80.1447C0.114424 79.4417 0.0778925 78.7482 0.0544579 78.0493C0.0475654 77.9223 0.0447983 77.7987 0.044109 77.6703C0.00551083 76.8465 0 76.0755 0 75.426C0 73.746 0.059962 72.0406 0.177824 70.3434C0.109588 69.9946 0.084792 69.6328 0.108916 69.2655C0.122012 69.0691 0.138544 68.8714 0.164047 68.6744C0.208159 68.3366 0.292243 68.0084 0.412862 67.694C2.59504 47.2208 13.4535 28.6116 30.3182 16.5097C30.4795 16.3881 30.6401 16.2742 30.802 16.1671C31.4982 15.6707 32.2006 15.1908 32.8995 14.7328C33.1311 14.5015 33.393 14.2935 33.6818 14.1156L33.7872 14.049C33.9485 13.9474 34.1105 13.8472 34.2711 13.7559C34.4868 13.6344 34.7122 13.5314 34.9445 13.449C35.7985 12.9265 36.609 12.4562 37.4086 12.0182C39.4101 10.8909 41.6171 9.802 43.9234 8.80443C44.6657 8.48174 45.4439 8.16317 46.2958 7.83225C48.3484 7.03241 50.5037 6.30741 52.7058 5.67578C52.9533 5.55837 53.2131 5.46431 53.4792 5.39566L53.6577 5.3476C53.8583 5.29268 54.0588 5.23981 54.2622 5.19382C54.3077 5.18352 54.3525 5.17459 54.3966 5.16567C62.0246 0.546502 65.5866 0 67.6172 0C68.141 0 68.6503 0.0439358 69.1314 0.131129C71.9291 0.640555 75.059 1.6443 78.2317 3.04763C88.6683 3.80147 98.5922 6.70974 107.739 11.6962C107.86 11.7566 107.981 11.8219 108.1 11.8912C108.293 11.9969 108.481 12.102 108.668 12.2063C108.782 12.2647 108.888 12.3251 108.989 12.3869C111.06 13.5678 113.118 14.8825 115.119 16.3037C117.438 17.2258 119.731 18.7973 122.105 21.0966C123.083 22.0426 123.929 23.1425 124.585 24.3103C138.217 37.9708 145.725 56.1055 145.725 75.4253V75.7102C145.725 75.8207 145.723 75.9375 145.717 76.0542C145.707 77.8303 145.625 79.6147 145.477 81.3606C145.47 81.4952 145.461 81.627 145.448 81.7519C145.289 83.5795 145.047 85.4882 144.732 87.3817C144.683 87.679 144.628 87.9941 144.571 88.3106C144.548 88.5056 144.516 88.6752 144.485 88.8152C144.414 89.1915 144.342 89.567 144.264 89.9433C144.151 90.498 144.027 91.0768 143.889 91.6562C143.867 91.7661 143.841 91.8766 143.814 91.9865C143.76 92.2288 143.702 92.4705 143.64 92.7128C143.614 92.846 143.582 92.9785 143.546 93.1076C143.454 93.4797 143.358 93.8573 143.254 94.2281L143.168 94.5398C143.046 94.9991 142.905 95.5044 142.749 96.0186L142.67 96.2767C142.623 96.434 142.576 96.5926 142.525 96.7505C142.389 97.2022 142.242 97.6506 142.094 98.0975L141.959 98.5088C140.982 101.425 139.823 104.247 138.505 106.934C137.858 108.289 137.119 109.697 136.328 111.08C136.049 111.575 135.751 112.085 135.447 112.592C134.722 113.805 133.922 115.053 133.077 116.287L132.794 116.694C132.349 117.333 131.899 117.962 131.438 118.583L131.215 118.886C130.709 119.559 130.194 120.214 129.671 120.862L129.25 121.379C128.706 122.041 128.157 122.693 127.595 123.331C127.252 123.718 126.907 124.106 126.561 124.474C126.269 124.801 125.965 125.12 125.666 125.433C125.627 125.474 125.49 125.618 125.459 125.65L125.157 125.957C124.871 126.249 124.586 126.538 124.298 126.82C123.314 127.801 122.279 128.769 121.249 129.675C121.205 129.716 121.024 129.882 120.976 129.923C120.146 130.648 119.441 131.242 118.759 131.792C118.32 132.147 117.869 132.506 117.418 132.845C117.297 132.943 117.172 133.037 117.049 133.131L116.925 133.226C116.68 133.418 116.405 133.621 116.124 133.83C116.124 133.83 115.872 134.011 115.82 134.052C115.742 134.113 115.66 134.171 115.577 134.226L115.049 134.603C114.592 134.934 114.127 135.251 113.648 135.568C112.535 136.328 111.379 137.06 110.114 137.803C109.737 138.037 109.346 138.264 108.961 138.482C108.688 138.643 108.348 138.828 108.007 139.013L107.67 139.196C107.24 139.433 106.793 139.667 106.339 139.901C106.177 139.987 106.012 140.07 105.849 140.15L105.735 140.206C105.371 140.391 104.977 140.591 104.577 140.782C103.709 141.202 102.836 141.592 102.098 141.916C101.911 141.998 101.715 142.081 101.52 142.163C101.375 142.227 101.229 142.29 101.084 142.349C100.731 142.502 100.371 142.648 100.011 142.788C99.7219 142.911 99.44 143.021 99.1512 143.13C98.6921 143.311 98.2455 143.478 97.7878 143.64C97.6396 143.698 97.4908 143.752 97.3412 143.8C96.7622 144.011 96.1902 144.203 95.6112 144.388C88.5767 146.696 81.1941 147.911 73.6991 147.992C73.4634 147.999 73.1691 148 72.8672 148Z" fill="url(#paint0_linear_1_1062)"/>
<path d="M137.298 75.8585V76.1293C137.298 76.1901 137.298 76.2581 137.292 76.3189C137.285 77.9862 137.211 79.6404 137.07 81.2743C137.07 81.3489 137.063 81.4234 137.056 81.4915C136.908 83.213 136.693 84.9078 136.418 86.5822C136.364 86.921 136.304 87.2598 136.243 87.5993C136.243 87.6673 136.23 87.7282 136.217 87.7825C136.149 88.1416 136.082 88.5006 136.008 88.8604C135.901 89.3961 135.787 89.9311 135.659 90.4668C135.645 90.5479 135.625 90.6297 135.605 90.7108C135.551 90.9613 135.491 91.2125 135.424 91.463C135.417 91.5238 135.403 91.5919 135.383 91.6527C135.303 91.9915 135.215 92.3375 135.121 92.6763C135.095 92.7712 135.074 92.8595 135.048 92.9543C134.926 93.4082 134.806 93.8491 134.671 94.2965C134.604 94.5136 134.544 94.7374 134.47 94.9611C134.308 95.5098 134.127 96.0527 133.952 96.5943C133.099 99.1701 132.084 101.679 130.915 104.091C130.317 105.359 129.672 106.599 128.987 107.813C128.489 108.708 127.972 109.582 127.428 110.443V110.45C125.594 113.412 123.517 116.205 121.246 118.815C120.944 119.161 120.635 119.513 120.325 119.845C120.057 120.15 119.774 120.448 119.499 120.74C119.465 120.78 119.425 120.814 119.391 120.855C119.041 121.214 118.699 121.574 118.35 121.919C117.449 122.828 116.529 123.702 115.581 124.543C115.52 124.604 115.453 124.658 115.393 124.719C114.748 125.288 114.096 125.851 113.424 126.4C113.028 126.725 112.625 127.051 112.221 127.355C112.074 127.478 111.919 127.593 111.771 127.708C111.522 127.905 111.268 128.094 111.005 128.291C110.911 128.359 110.817 128.426 110.723 128.501H110.716C110.622 128.569 110.535 128.636 110.434 128.711C110.327 128.785 110.226 128.86 110.119 128.934C109.722 129.226 109.319 129.504 108.902 129.781C107.874 130.493 106.819 131.164 105.737 131.808C105.415 132.012 105.078 132.209 104.75 132.398C104.374 132.622 103.977 132.832 103.587 133.049C103.197 133.266 102.801 133.476 102.398 133.686C102.236 133.775 102.068 133.856 101.907 133.937C101.564 134.113 101.222 134.29 100.872 134.459C100.139 134.818 99.4074 135.151 98.6611 135.483C98.4931 135.558 98.3181 135.632 98.1436 135.707C98.023 135.761 97.9018 135.815 97.7805 135.862C97.4583 136.005 97.1289 136.14 96.7995 136.269C96.5505 136.378 96.3086 136.473 96.0603 136.567C95.6369 136.737 95.2271 136.893 94.8036 137.042C94.7096 137.082 94.6156 137.116 94.5216 137.143C93.9977 137.34 93.4802 137.516 92.9557 137.685C86.834 139.719 80.309 140.851 73.5285 140.926C73.2802 140.932 73.0377 140.932 72.7893 140.932C68.4352 140.932 64.181 140.491 60.0687 139.658C56.9038 139.021 53.8193 138.153 50.8424 137.062C49.2836 136.492 47.7514 135.869 46.2458 135.184C41.4346 132.995 36.9456 130.229 32.8535 126.968C32.6855 126.833 32.5176 126.697 32.3496 126.555C32.3023 126.521 32.242 126.474 32.1953 126.433C31.3219 125.721 30.4686 124.982 29.6347 124.216C29.5874 124.182 29.5342 124.135 29.4869 124.088C26.6105 121.457 23.9695 118.576 21.6048 115.465C21.4232 115.235 21.2488 114.998 21.0737 114.76C19.8236 113.086 18.6616 111.35 17.5859 109.554C17.5593 109.5 17.5256 109.446 17.4919 109.391C17.4316 109.283 17.3641 109.174 17.3103 109.073C16.9342 108.442 16.5711 107.805 16.2216 107.161C16.1879 107.093 16.1477 107.026 16.114 106.964C11.7391 98.8843 9.02422 89.7735 8.41276 80.0937C8.37256 79.4501 8.33885 78.8123 8.31875 78.1687C8.31226 78.0739 8.31226 77.9855 8.31226 77.8907C8.27854 77.2059 8.27205 76.5348 8.27205 75.8572C8.27205 73.9727 8.35246 72.1151 8.50743 70.2713C8.51391 70.1699 8.52105 70.0678 8.53402 69.9665C10.2543 50.6336 20.3611 33.7347 35.1579 22.9972C35.272 22.9089 35.3862 22.8278 35.5009 22.7532C36.3815 22.1161 37.275 21.5059 38.1886 20.9231C38.33 20.8348 38.4707 20.7399 38.612 20.6588C39.5192 20.0826 40.4334 19.5338 41.3736 19.0119C43.2417 17.9477 45.1837 16.9848 47.1659 16.1175C47.8584 15.8127 48.5503 15.5275 49.2558 15.2496C51.3521 14.4228 53.5029 13.7039 55.7004 13.0937C55.9085 13.0394 56.1102 12.9786 56.3183 12.9308C58.4419 12.3618 60.6121 11.9072 62.8167 11.5618C64.087 11.3584 65.3838 11.1955 66.6806 11.0739C66.8083 11.0601 66.9426 11.0471 67.0703 11.0399C68.9585 10.8705 70.8603 10.7822 72.7887 10.7822C84.0179 10.7822 94.5676 13.6699 103.754 18.7607C103.814 18.7882 103.875 18.8215 103.929 18.8555C104.151 18.9772 104.366 19.0995 104.58 19.2218C104.641 19.2486 104.688 19.2826 104.735 19.3101C109.593 22.1096 114.062 25.5194 118.013 29.4576C118.033 29.4713 118.06 29.4982 118.08 29.5184C118.114 29.5459 118.148 29.5727 118.174 29.6067C118.188 29.6205 118.202 29.6407 118.215 29.6545C130.007 41.4431 137.298 57.7867 137.298 75.8585Z" fill="#7282FF"/>
<path d="M56.1756 12.9145C50.504 16.5682 44.5975 19.9302 38.0453 20.9067C38.1867 20.8184 38.3274 20.7236 38.4687 20.6425C44.604 19.6189 50.1882 16.5074 55.557 13.0773C55.7658 13.023 55.9675 12.9616 56.1756 12.9145Z" fill="#FFECE0"/>
<path d="M103.786 18.8386C103.14 20.0049 102.347 21.0619 101.467 21.9501C97.9997 25.4612 93.1619 27.2986 88.4978 28.8847C84.0828 30.3898 79.5536 31.8065 75.1723 33.1893C64.2595 36.6193 52.9699 40.1579 42.5142 45.2349C29.7463 51.4239 18.1546 59.9649 8.36415 70.255C8.37064 70.1536 8.37778 70.0516 8.3914 69.9502C18.1617 59.721 29.7132 51.2277 42.4273 45.0524C52.9038 39.9754 64.1927 36.4303 75.1126 33.0002C79.494 31.6312 84.0296 30.2007 88.4382 28.7029C93.0815 27.1233 97.8927 25.2866 101.334 21.8088C102.201 20.9343 102.98 19.8839 103.612 18.7451C103.671 18.7713 103.732 18.8053 103.786 18.8386Z" fill="#FFECE0"/>
<path d="M118.032 29.5898C112.031 32.3422 105.694 34.2129 99.1623 35.1685C98.0671 35.3242 96.9311 35.4668 95.8359 35.6087C90.2654 36.3001 84.5062 37.0117 80.1851 40.5301C76.9664 43.1464 75.0309 46.9767 73.1563 50.6841C72.3633 52.2565 71.5502 53.8701 70.6431 55.3752C66.8129 61.7741 60.9467 66.8851 54.1124 69.7801C51.5926 70.8443 48.9043 71.6371 46.3042 72.4037C41.6272 73.7799 36.7958 75.1966 32.9449 78.2401C27.8581 82.2463 25.1568 88.4621 22.556 94.468C21.951 95.8572 21.3396 97.2943 20.6944 98.6704C19.3035 101.66 17.7649 104.487 16.0777 107.143C16.044 107.075 16.0037 107.008 15.97 106.947C17.63 104.33 19.1486 101.537 20.5128 98.5887C21.158 97.206 21.7759 95.7827 22.3744 94.3927C24.9953 88.3594 27.6901 82.1299 32.8171 78.0831C36.7148 75.0194 41.5597 73.5889 46.2504 72.2199C48.844 71.4539 51.5323 70.654 54.0385 69.6035C60.8325 66.7223 66.6715 61.6387 70.4816 55.2732C71.3751 53.7681 72.1882 52.1617 72.9813 50.5958C74.8629 46.8675 76.8114 43.0175 80.0639 40.3737C84.4251 36.8286 90.2109 36.1032 95.8087 35.4118C96.911 35.2692 98.0327 35.1339 99.1286 34.971C105.633 34.0219 111.923 32.165 117.87 29.4394C117.89 29.4531 117.918 29.4799 117.938 29.5002C117.971 29.529 118.005 29.5558 118.032 29.5898Z" fill="#FFECE0"/>
<path d="M135.282 91.4447C135.275 91.5055 135.261 91.5736 135.241 91.6344C129.509 90.1294 123.582 91.3021 119.766 94.793C114.685 99.4363 114.02 106.764 113.375 113.854C113.173 116.044 112.972 118.315 112.636 120.457C112.212 123.175 111.52 125.859 110.58 128.482H110.573C110.479 128.55 110.391 128.618 110.291 128.692C111.279 125.994 111.998 123.229 112.441 120.429C112.777 118.294 112.979 116.03 113.18 113.827C113.832 106.709 114.497 99.3408 119.638 94.6432C123.502 91.119 129.489 89.9259 135.282 91.4447Z" fill="#FFECE0"/>
<path d="M136.928 81.256C136.928 81.3306 136.921 81.4052 136.914 81.4732C132.036 82.68 126.7 82.7408 121.465 82.8154L120.638 82.8219C97.9251 83.1339 80.3732 86.3265 65.4214 92.8746C49.5625 99.8229 36.8354 110.994 29.4902 124.199C29.4428 124.165 29.3897 124.118 29.3423 124.07C36.707 110.845 49.4549 99.66 65.3404 92.6986C80.3259 86.1303 97.8914 82.9377 120.638 82.6257L121.465 82.6191C126.7 82.5446 132.049 82.4831 136.928 81.256Z" fill="#FFECE0"/>
<path d="M54.6103 39.959C56.8143 37.4644 61.7066 31.7163 61.3506 30.2792C60.887 28.4354 56.4317 22.5519 53.912 22.321C51.3987 22.0907 41.561 24.9713 42.1322 23.9346C42.7035 22.8972 62.2649 6.97415 68.5545 8.12665C74.6963 9.25887 84.44 13.6785 93.512 23.0195L54.6103 39.959Z" fill="#993F8D"/>
<path d="M49.235 44.7921C59.6349 33.6608 73.4578 25.8295 88.2929 22.6637C92.3403 21.8003 96.4837 21.2738 100.613 21.5145C104.05 21.7146 107.657 22.0116 110.875 23.2445C112.923 24.0294 114.729 25.4763 116.301 27.0166C117.872 28.557 118.97 30.6926 118.892 32.9015C118.828 34.6838 118.025 36.3511 117.119 37.883C112.428 45.8138 104.697 51.522 96.426 55.4812C88.1548 59.4397 79.2527 61.833 70.5069 64.5644C64.9766 66.2919 59.4476 68.1711 53.7013 68.8821C51.2684 69.1829 48.7643 69.2667 46.4014 68.6106C42.0623 67.4045 39.7422 64.0516 40.0295 59.5738C40.2396 56.2988 42.2983 53.8603 44.0522 51.227C45.5825 48.9279 47.3546 46.804 49.235 44.7921Z" fill="#502750"/>
<path d="M86.9598 107.318C86.8859 107.677 86.812 108.037 86.7316 108.39C85.4684 114.158 83.5329 119.886 79.8032 124.414C75.5432 129.579 69.2529 132.745 62.7551 134.195C57.3525 135.395 51.7814 135.497 46.2445 135.185C41.4333 132.996 36.9443 130.229 32.8522 126.969C32.6842 126.833 32.5163 126.698 32.3484 126.555C32.301 126.521 32.2407 126.474 32.194 126.434C31.3206 125.722 30.4673 124.983 29.6334 124.217C29.5861 124.183 29.5329 124.136 29.4856 124.088C26.6092 121.458 23.9682 118.577 21.6035 115.466C21.4219 115.236 21.2475 114.998 21.0724 114.761C19.8223 113.086 18.6603 111.351 17.5846 109.555C17.558 109.501 17.5243 109.447 17.4906 109.392C17.4303 109.284 17.3629 109.175 17.309 109.074C16.933 108.443 16.5699 107.806 16.2204 107.162C16.1866 107.094 16.1464 107.026 16.1127 106.965C11.7379 98.885 9.02295 89.7742 8.4115 80.0944C9.72843 78.7182 11.2671 77.5932 13.0412 76.841C18.4172 74.5634 25.1166 76.075 29.861 72.6587C33.2814 70.1981 34.7131 65.8262 35.6203 61.691C36.5339 57.5559 37.2063 53.1768 39.7396 49.8011C41.9436 46.8662 45.4716 44.9948 49.1138 44.8254C51.97 44.6966 54.8192 45.5508 57.6612 45.246C62.1437 44.7581 65.6172 41.4974 68.1039 37.932C69.1991 36.3596 69.9253 34.0886 72.1357 34.1364C74.2593 34.1907 76.497 36.2242 77.7264 37.7835C79.2852 39.7693 80.2532 42.1554 81.1266 44.535C81.7517 46.2232 82.3431 47.9245 82.9007 49.6395V49.6461C88.9154 68.2051 90.8775 88.2293 86.9598 107.318Z" fill="#FFA8DE"/>
<path d="M136.418 86.5822C136.364 86.921 136.303 87.2598 136.243 87.5993C136.243 87.6673 136.229 87.7281 136.216 87.7824C136.149 88.1415 136.082 88.5006 136.008 88.8603C135.9 89.396 135.786 89.9311 135.658 90.4668C135.645 90.5479 135.625 90.6297 135.604 90.7108C135.551 90.9613 135.49 91.2124 135.423 91.463C135.416 91.5238 135.403 91.5918 135.383 91.6526C135.302 91.9915 135.215 92.3375 135.121 92.6763C135.094 92.7711 135.073 92.8594 135.047 92.9543C134.926 93.4082 134.805 93.8491 134.671 94.2965C134.603 94.5136 134.543 94.7373 134.469 94.961C134.308 95.5098 134.127 96.0527 133.952 96.5943C133.098 99.1701 132.084 101.678 130.914 104.091C130.317 105.359 129.671 106.599 128.986 107.813C128.489 108.708 127.971 109.582 127.427 110.443V110.45C122.508 114.347 117.012 117.507 111.179 119.764C107.61 121.147 103.726 122.211 99.9767 121.425C94.023 120.164 89.971 114.625 87.142 109.189C87.0006 108.925 86.8664 108.661 86.7322 108.389C81.2758 97.5839 78.2853 85.5252 78.07 73.3984C77.9358 65.4199 79.031 57.2654 82.6329 50.1614C82.7204 49.992 82.8073 49.816 82.9013 49.646V49.6394C86.5435 42.7656 92.7663 37.0783 100.285 35.33L101.972 36.1567C102.993 39.0648 102.624 42.2509 102.711 45.3349C102.791 48.4189 103.531 51.8084 106.011 53.6117C108.854 55.6858 113.006 54.9538 115.923 56.9266C118.422 58.6213 119.383 62.0441 118.832 65.0405C118.442 67.1486 117.414 69.1279 117.26 71.27C117.064 73.8864 118.301 76.5642 120.404 78.1033C123.523 80.3808 127.83 80.0145 131.338 81.6144C133.528 82.6165 135.349 84.4132 136.418 86.5822Z" fill="#FFA8DE"/>
<path d="M130.914 104.092C130.316 105.359 129.671 106.599 128.986 107.813C126.788 111.759 124.181 115.439 121.244 118.815C120.942 119.161 120.633 119.513 120.323 119.845C120.055 120.15 119.772 120.448 119.497 120.74C119.463 120.781 119.423 120.815 119.389 120.855C119.039 121.214 118.697 121.574 118.348 121.919C117.447 122.828 116.527 123.702 115.579 124.543C115.519 124.604 115.451 124.658 115.391 124.719C114.746 125.288 114.094 125.851 113.422 126.4C113.026 126.725 112.623 127.051 112.219 127.355C112.072 127.478 111.917 127.593 111.769 127.708C111.52 127.905 111.266 128.095 111.003 128.291C110.909 128.359 110.815 128.426 110.721 128.501H110.714C110.62 128.569 110.533 128.636 110.432 128.711C110.325 128.785 110.224 128.86 110.117 128.934C109.72 129.226 109.317 129.504 108.9 129.781C107.872 130.493 106.817 131.164 105.735 131.808C105.413 132.012 105.077 132.209 104.748 132.398C104.372 132.622 103.975 132.832 103.585 133.049C103.195 133.266 102.799 133.476 102.396 133.686C102.235 133.775 102.067 133.856 101.905 133.937C101.562 134.113 101.22 134.29 100.87 134.459C100.138 134.819 99.4055 135.151 98.6591 135.483C98.4912 135.558 98.3161 135.632 98.1417 135.707C98.0211 135.761 97.8999 135.815 97.7786 135.862C97.4563 136.005 97.1269 136.14 96.7976 136.269C96.5486 136.378 96.3067 136.473 96.0584 136.568C95.635 136.737 95.2251 136.893 94.8017 137.042C94.7077 137.082 94.6137 137.116 94.5197 137.143C93.9958 137.34 93.4783 137.516 92.9538 137.685C86.8321 139.719 80.3071 140.851 73.5266 140.926C73.2783 140.932 73.0358 140.932 72.7874 140.932C68.4333 140.932 64.1791 140.491 60.0668 139.658C56.9019 139.021 53.8174 138.153 50.8405 137.062C44.2818 134.676 38.2204 131.246 32.8516 126.969C32.6836 126.833 32.5157 126.698 32.3477 126.555C32.3004 126.521 32.2401 126.474 32.1934 126.434C31.32 125.722 30.4667 124.983 29.6328 124.217C29.5855 124.183 29.5323 124.136 29.485 124.088C26.6086 121.458 23.9676 118.577 21.6029 115.466C21.4213 115.236 21.2469 114.998 21.0718 114.761C26.8375 103.753 41.2719 77.6612 50.3095 74.1298C51.6673 73.5941 52.9232 73.1336 54.0794 72.7196C61.6729 70.0215 65.2074 69.6015 67.8011 67.256L68.0702 67.012C68.3322 66.7543 68.5876 66.4698 68.836 66.165L68.9676 65.938C71.9043 60.3861 72.2161 44.8189 72.2161 44.8189L86.1668 58.4369L85.0917 63.1281L85.0042 63.5074C84.7085 64.8025 84.5672 66.1238 84.5808 67.4529C84.5808 67.7512 84.5873 68.0559 84.608 68.3614C84.8025 68.8696 85.2195 69.5885 86.1331 70.1372C86.2271 70.1981 86.3347 70.2524 86.4424 70.3067C86.9125 70.5441 87.5038 70.7338 88.2301 70.8352C89.9438 71.0791 93.1288 71.0183 97.0401 71.9059C101.347 72.8818 106.522 75.0174 111.561 80.0133C117.938 86.3318 126.13 97.3806 130.914 104.092Z" fill="#FF8C9C"/>
<path d="M85.0917 63.1281L85.0042 63.5075C84.7085 64.8026 84.5671 66.1238 84.5807 67.4529C83.21 67.5209 81.8321 67.2835 80.5826 66.7275C78.4662 65.7922 76.8063 64.0294 75.5834 62.0574C74.6496 60.5458 74.2593 59.1356 73.8158 57.4075C77.0812 60.1389 80.9723 62.0979 85.0917 63.1281Z" fill="#502750"/>
<path d="M130.914 104.091C130.316 105.359 129.671 106.599 128.986 107.813C126.788 111.759 124.181 115.439 121.244 118.815C120.942 119.161 120.633 119.513 120.323 119.845C120.055 120.15 119.772 120.448 119.497 120.74C119.463 120.78 119.423 120.814 119.389 120.855C119.039 121.214 118.697 121.574 118.348 121.919C117.447 122.828 116.527 123.702 115.579 124.543C115.519 124.604 115.451 124.658 115.391 124.719C114.746 125.288 114.094 125.851 113.422 126.4C113.026 126.725 112.623 127.05 112.219 127.355C112.072 127.478 111.917 127.593 111.769 127.708C111.52 127.905 111.266 128.094 111.003 128.291C110.909 128.359 110.815 128.426 110.721 128.501H110.714C110.62 128.569 110.533 128.636 110.432 128.711C110.325 128.785 110.224 128.86 110.117 128.934C109.72 129.226 109.317 129.504 108.9 129.781C107.872 130.493 106.817 131.164 105.735 131.808C105.413 132.012 105.077 132.209 104.748 132.398C104.372 132.622 103.975 132.832 103.585 133.049C103.195 133.266 102.799 133.476 102.396 133.686C102.235 133.774 102.067 133.856 101.905 133.937C101.562 134.113 101.22 134.29 100.87 134.459C100.138 134.818 99.4055 135.151 98.6591 135.483C98.4912 135.558 98.3161 135.632 98.1417 135.707C98.0211 135.761 97.8999 135.815 97.7786 135.862C97.4563 136.005 97.1269 136.14 96.7976 136.269C96.5486 136.378 96.3067 136.473 96.0584 136.567C95.635 136.737 95.2251 136.893 94.8017 137.042C94.7077 137.082 94.6137 137.116 94.5197 137.143C93.9958 137.34 93.4783 137.516 92.9538 137.685C86.8321 139.719 80.3071 140.851 73.5266 140.926C73.2783 140.932 73.0358 140.932 72.7874 140.932C68.4333 140.932 64.1791 140.491 60.0668 139.658C56.9019 139.021 53.8174 138.153 50.8405 137.062C44.2818 134.676 38.2204 131.246 32.8516 126.969C32.6836 126.833 32.5157 126.698 32.3477 126.555C32.3004 126.521 32.2401 126.474 32.1934 126.434C31.32 125.722 30.4667 124.983 29.6328 124.217C29.5855 124.183 29.5323 124.136 29.485 124.088C26.6086 121.458 23.9676 118.577 21.6029 115.466C21.4213 115.236 21.2469 114.998 21.0718 114.761C26.8375 103.753 41.2719 77.6611 50.3095 74.1297C51.6673 73.594 52.9232 73.1335 54.0794 72.7195C55.3697 73.4043 56.6464 74.1905 58.0236 74.753C64.8106 77.512 72.3303 78.1288 79.5471 77.1797C83.6801 76.6375 87.7385 75.5935 91.6297 74.0885C93.4239 73.3971 95.2252 72.6037 97.0394 71.9058C101.347 72.8817 106.521 75.0173 111.561 80.0132C117.938 86.3317 126.13 97.3805 130.914 104.091Z" fill="#502750"/>
<path d="M101.449 44.876C103.317 36.809 98.3491 28.7417 90.3521 26.8571C82.3551 24.9725 74.3577 29.9842 72.4894 38.0512C70.6211 46.1182 75.5895 54.1855 83.5865 56.0701C91.5835 57.9547 99.5809 52.9429 101.449 44.876Z" fill="#FF8C9C"/>
<path d="M101.495 45.2813C101.495 45.2813 98.7493 65.7038 88.2268 64.4342C77.7037 63.1653 74.0434 60.165 72.8996 55.6655C71.7558 51.1654 72.2136 39.8295 72.2136 39.8295L101.495 45.2813Z" fill="#FF8C9C"/>
<path d="M84.0698 28.61C84.8823 29.8063 85.1267 31.3042 85.1799 32.753C85.2571 34.8755 84.6696 37.4127 82.6939 38.1486C81.2252 38.6954 79.4745 38.0151 78.0726 38.7176C76.7726 39.3691 76.2636 40.9487 75.9484 42.3779C75.6326 43.811 75.2942 45.4056 74.1043 46.2527C72.9521 47.0735 71.2811 46.8688 70.1555 46.012C69.0298 45.1545 68.395 43.7698 68.1402 42.3707C67.3725 38.1479 69.7665 33.9061 72.9314 31.0367C75.4433 28.7591 81.327 24.5697 84.0698 28.61Z" fill="#FFA8DE"/>
<path d="M85.1365 33.201C86.3264 33.583 87.6102 33.39 88.8584 33.4149C90.1066 33.4397 91.4929 33.7818 92.153 34.8506C92.7431 35.8062 92.5706 37.0274 92.7074 38.1452C92.9544 40.1657 94.2902 41.9441 95.9851 43.0489C97.6801 44.1536 99.7025 44.6507 101.712 44.8431C101.941 44.8653 102.21 44.8673 102.354 44.6861C102.439 44.5795 102.456 44.4349 102.469 44.2995C102.875 40.199 102.757 35.8154 100.617 32.3055C98.3959 28.6636 94.296 26.5378 90.1423 25.6862C88.0823 25.2636 82.6233 24.6063 81.2707 26.9093C80.1022 28.8997 83.3962 32.6417 85.1365 33.201Z" fill="#FFA8DE"/>
<path d="M84.6554 47.0788C84.6554 47.9121 83.9856 48.5871 83.1601 48.5871C82.3341 48.5871 81.6649 47.9114 81.6649 47.0788C81.6649 46.2461 82.3347 45.5704 83.1601 45.5704C83.9856 45.5698 84.6554 46.2455 84.6554 47.0788Z" fill="#502750"/>
<path d="M97.0816 49.0756C97.0816 49.9089 96.4118 50.5839 95.5863 50.5839C94.7602 50.5839 94.0911 49.9082 94.0911 49.0756C94.0911 48.2423 94.7609 47.5673 95.5863 47.5673C96.4124 47.5673 97.0816 48.2423 97.0816 49.0756Z" fill="#502750"/>
<path d="M80.7726 43.3412C81.2615 42.7382 82.0156 42.4262 82.7671 42.3431C83.5193 42.2679 84.324 42.4327 84.9121 42.9455C85.0625 43.077 85.0794 43.3065 84.9491 43.4583C84.8862 43.5316 84.8006 43.5734 84.7124 43.5819L84.6891 43.5845C84.0199 43.6499 83.47 43.6604 82.8968 43.7121C82.323 43.7553 81.7744 43.8514 81.1124 43.9266L81.091 43.9292C80.8945 43.9515 80.7169 43.8089 80.6948 43.6107C80.6825 43.51 80.7136 43.4138 80.7726 43.3412Z" fill="#502750"/>
<path d="M98.3505 46.7078C97.7312 46.4599 97.2274 46.2225 96.6847 46.0282C96.1445 45.8261 95.6167 45.6711 94.9884 45.4304L94.967 45.4225C94.7809 45.3512 94.6869 45.1413 94.7576 44.9535C94.7919 44.8633 94.8587 44.7939 94.9385 44.7547C95.6388 44.4152 96.4584 44.4695 97.1645 44.7416C97.868 45.0209 98.5139 45.5219 98.829 46.2329C98.9094 46.4148 98.829 46.6287 98.6481 46.7104C98.5566 46.7516 98.4574 46.751 98.3706 46.7169L98.3505 46.7078Z" fill="#502750"/>
<path d="M91.9007 46.0798C91.4377 48.0617 91.0065 50.6356 90.4949 52.605C90.36 53.1237 89.7 53.2767 89.3518 52.8719C89.0165 52.4827 88.6897 52.0857 88.3727 51.6814" stroke="#502750" stroke-width="0.332864" stroke-miterlimit="10" stroke-linecap="round" stroke-linejoin="round"/>
<path d="M86.4424 53.6C87.297 54.7348 88.8408 55.2921 90.2155 54.9605" stroke="#502750" stroke-width="0.332864" stroke-miterlimit="10" stroke-linecap="round" stroke-linejoin="round"/>
<path d="M71.4776 44.1242C71.0133 43.6579 70.5089 43.2177 69.9149 42.9397C69.321 42.661 68.6233 42.5583 68.0053 42.7781C67.4393 42.9796 66.9919 43.4283 66.6372 43.9175C65.6464 45.2839 65.2548 47.0918 65.6535 48.7368C66.0523 50.3819 67.2525 51.8222 68.8146 52.4422C70.1458 52.9707 71.8063 52.8438 72.827 51.832C73.4449 51.2191 73.7684 50.3537 73.8826 49.4871C73.9986 48.6034 74.0751 47.4751 73.5726 46.6948C72.9806 45.7764 72.2466 44.896 71.4776 44.1242Z" fill="#FF8C9C"/>
<path d="M67.095 45.932C68.1306 45.8987 69.2147 45.9281 70.1173 46.7084C71.1924 47.6379 71.953 49.0841 72.3854 50.7042" stroke="#502750" stroke-width="0.434575" stroke-miterlimit="10" stroke-linecap="round" stroke-linejoin="round"/>
<path d="M68.4612 48.5982C69.1596 48.3476 69.9039 48.5295 70.5913 48.833C71.2397 49.1195 71.8978 49.5531 72.2622 50.3387C72.2719 50.359 72.2849 50.3825 72.3024 50.3786C72.3199 50.3747 72.3147 50.3263 72.2998 50.3387" stroke="#502750" stroke-width="0.434575" stroke-miterlimit="10" stroke-linecap="round" stroke-linejoin="round"/>
<path d="M86.4424 70.3065C84.621 79.7156 82.1414 89.0769 79.0906 98.1601V98.1667C78.9428 98.6206 78.7885 99.0615 78.6335 99.5089C78.6069 99.5769 78.546 99.624 78.472 99.624C78.4656 99.624 78.4656 99.624 78.4656 99.624C78.3852 99.6175 78.3242 99.5632 78.3041 99.4886C78.203 99.0477 78.1024 98.6075 77.9883 98.1667C76.9398 93.8759 75.4887 89.6459 74.0771 85.5382L67.8004 67.2565L68.0695 67.0126L74.3929 85.4231C75.8174 89.5583 77.2822 93.815 78.3307 98.1399C78.3981 98.3701 78.4519 98.6075 78.5058 98.8378C78.5862 98.6004 78.6672 98.3701 78.7411 98.1327C81.8192 89.0154 84.2987 79.5998 86.1331 70.1371C86.2271 70.198 86.3347 70.2522 86.4424 70.3065Z" fill="#FFECE0"/>
<path d="M78.5615 106.318C80.804 106.318 82.6219 104.484 82.6219 102.222C82.6219 99.96 80.804 98.1262 78.5615 98.1262C76.319 98.1262 74.5011 99.96 74.5011 102.222C74.5011 104.484 76.319 106.318 78.5615 106.318Z" fill="#FFECE0"/>
<g opacity="0.48">
<path opacity="0.44" d="M76.9891 135.048C90.3971 135.048 101.266 124.084 101.266 110.558C101.266 97.0332 90.3971 86.0688 76.9891 86.0688C63.5811 86.0688 52.7118 97.0332 52.7118 110.558C52.7118 124.084 63.5811 135.048 76.9891 135.048Z" fill="#FFECE0"/>
<path opacity="0.44" d="M77.6123 134.895C88.0838 134.895 96.5726 126.332 96.5726 115.769C96.5726 105.206 88.0838 96.6427 77.6123 96.6427C67.1408 96.6427 58.652 105.206 58.652 115.769C58.652 126.332 67.1408 134.895 77.6123 134.895Z" fill="#FFECE0"/>
</g>
<path d="M72.4697 135.011C67.7064 134.07 63.0028 131.428 60.8514 127.038C60.0675 125.44 59.6486 123.621 59.9054 121.856C60.1621 120.092 61.1516 118.398 62.689 117.518C63.4995 117.053 64.5467 116.838 65.3494 117.316C66.1483 117.793 66.4576 118.776 66.8324 119.633C67.307 120.719 68.0514 121.773 69.155 122.187C70.2586 122.601 71.7376 122.102 72.0443 120.955C72.2194 120.299 71.9951 119.61 71.7772 118.967C71.1573 117.14 70.5646 115.283 70.3818 113.36C70.1989 111.437 70.4544 109.421 71.4342 107.761C72.4139 106.101 74.1971 104.861 76.1125 104.856C76.899 104.854 77.7517 105.103 78.1926 105.759C78.6432 106.429 78.5466 107.317 78.3994 108.113C77.8865 110.891 76.9781 113.742 77.6719 116.48C77.8833 117.314 78.4409 118.247 79.2943 118.212C80.2377 118.174 80.6773 117.037 80.8848 116.108C81.0677 115.288 81.2512 114.469 81.434 113.649C81.6091 112.865 82.0656 111.876 82.8508 112.012C83.1348 112.062 83.3702 112.265 83.5518 112.491C84.4978 113.675 84.2235 115.383 84.4064 116.893C84.4887 117.572 84.8084 118.364 85.4801 118.456C85.7842 118.497 86.087 118.375 86.3561 118.226C87.7801 117.433 88.8318 115.772 90.4574 115.713C91.478 115.675 92.4324 116.345 92.97 117.221C93.5075 118.097 93.6878 119.149 93.7416 120.178C94.0295 125.68 90.6636 131.193 85.6636 133.41C82.1155 134.984 78.1005 134.953 74.225 134.894" fill="#FFA861"/>
<path d="M70.8688 131.443C69.5597 128.798 70.4662 125.246 72.8789 123.568C73.1804 123.358 73.6045 123.18 73.8885 123.413C74.1297 123.611 74.1116 123.981 74.0824 124.294C74.0227 124.946 74.0201 125.633 74.3087 126.22C74.5972 126.807 75.2554 127.255 75.8876 127.102C76.523 126.949 76.9075 126.25 76.9231 125.591C76.9386 124.933 76.6708 124.305 76.4076 123.702C76.0069 122.781 75.6055 121.86 75.2048 120.94C75.1017 120.703 74.996 120.448 75.0446 120.194C75.1458 119.663 75.8149 119.489 76.3505 119.511C77.8847 119.574 79.3728 120.376 80.278 121.626C81.1832 122.877 81.4873 124.551 81.0801 126.044C80.9685 126.451 80.8123 126.907 81.0165 127.276C81.2914 127.771 82.0637 127.736 82.4878 127.363C82.9118 126.989 83.0889 126.415 83.2866 125.883C83.485 125.351 83.7625 124.791 84.2767 124.559C84.8486 124.301 85.5502 124.553 85.9808 125.013C86.4107 125.473 86.6195 126.098 86.766 126.712C87.0928 128.079 87.1635 129.567 86.5929 130.851C85.9892 132.208 84.7228 133.184 83.3404 133.702C81.473 134.402 78.8372 134.866 76.8174 134.855C74.3955 134.843 71.9873 133.703 70.8688 131.443Z" fill="#FFECE0"/>
<path d="M28.6408 54.8644L36.8323 54.2096L28.7135 53.4509C29.9059 52.0747 31.6968 49.9175 31.6968 49.9175C31.6968 49.9175 29.5019 51.8654 28.0183 53.203L27.3881 44.5533L26.789 52.9348C25.3709 51.6737 23.2136 50.0313 23.2136 50.0313C23.2136 50.0313 25.1978 52.2369 26.4187 53.5817L18.1164 54.1233L26.3493 54.8186C25.0843 56.2399 23.3271 58.5887 23.3271 58.5887C23.3271 58.5887 25.5362 56.5663 26.8674 55.3366L27.475 63.3465L28.1292 55.3072C29.4754 56.5022 31.8109 58.4749 31.8109 58.4749C31.8109 58.4749 29.9623 56.3576 28.6408 54.8644Z" fill="#FFA861"/>
<path d="M113.199 100.048L124.615 99.1362L113.3 98.0786C114.962 96.1608 117.458 93.154 117.458 93.154C117.458 93.154 114.399 95.8684 112.332 97.7332L111.453 85.6777L110.618 97.3591C108.641 95.6015 105.635 93.3122 105.635 93.3122C105.635 93.3122 108.401 96.3864 110.102 98.2604L98.5301 99.0152L110.004 99.9846C108.241 101.966 105.792 105.239 105.792 105.239C105.792 105.239 108.871 102.42 110.726 100.707L111.573 111.87L112.485 100.665C114.361 102.33 117.616 105.08 117.616 105.08C117.616 105.08 115.041 102.129 113.199 100.048Z" fill="#FFA861"/>
<path d="M62.3902 92.2467C62.3091 92.2336 62.313 92.1146 62.3947 92.1074C63.5035 92.0119 65.6588 91.7463 65.9 91.1171C66.1562 90.4499 66.6295 87.8768 66.8221 86.7949C66.8363 86.7151 66.9505 86.719 66.9595 86.7995C67.0957 88.0063 67.4789 91.0517 67.9147 91.3369C68.329 91.6083 70.2723 91.8961 71.1781 92.0184C71.2566 92.0289 71.2592 92.1427 71.1814 92.1571C70.4565 92.2879 69.7315 92.443 69.0293 92.6686C68.6753 92.7824 68.283 92.9204 67.9821 93.1644C67.632 93.4483 67.5568 93.7864 67.4621 94.207C67.2488 95.1541 67.1048 96.1196 66.9628 97.0798C66.9511 97.1609 66.8344 97.1582 66.8247 97.0771C66.7034 96.0162 66.3559 93.8074 65.5188 93.1637C64.9171 92.7013 63.3012 92.3913 62.3902 92.2467Z" fill="#FFECE0"/>
<path d="M14.4016 92.2467C14.3205 92.2336 14.3244 92.1145 14.4061 92.1073C15.5156 92.0118 17.6702 91.7463 17.9115 91.1171C18.1676 90.4499 18.6409 87.8767 18.8335 86.7949C18.8478 86.7151 18.9619 86.719 18.971 86.7994C19.1071 88.0062 19.4904 91.0516 19.9261 91.3368C20.3404 91.6083 22.2837 91.8961 23.1896 92.0184C23.268 92.0288 23.2706 92.1427 23.1928 92.157C22.4679 92.2879 21.7423 92.4429 21.0407 92.6685C20.6867 92.7824 20.2944 92.9204 19.9935 93.1643C19.6434 93.4482 19.5682 93.7864 19.4735 94.207C19.2602 95.1541 19.1162 96.1195 18.9742 97.0797C18.9625 97.1608 18.8458 97.1582 18.8361 97.0771C18.7149 96.0162 18.3673 93.8073 17.5302 93.1637C16.9291 92.7012 15.3133 92.3912 14.4016 92.2467Z" fill="#FFECE0"/>
<path d="M123.726 70.8966C123.645 70.8835 123.648 70.7645 123.73 70.7573C124.84 70.6618 126.994 70.3962 127.235 69.767C127.492 69.0998 127.965 66.5267 128.157 65.4448C128.172 65.365 128.286 65.3689 128.295 65.4494C128.43 66.6562 128.814 69.7016 129.25 69.9868C129.664 70.2582 131.608 70.546 132.514 70.6683C132.592 70.6788 132.595 70.7926 132.517 70.807C131.792 70.9378 131.066 71.0928 130.365 71.3185C130.011 71.4323 129.618 71.5703 129.317 71.8143C128.967 72.0982 128.892 72.437 128.797 72.8569C128.584 73.804 128.44 74.7695 128.298 75.7297C128.287 75.8108 128.17 75.8082 128.16 75.727C128.039 74.6661 127.691 72.4573 126.854 71.8136C126.253 71.3512 124.637 71.0412 123.726 70.8966Z" fill="#FFECE0"/>
<path d="M110.334 49.007C110.253 48.9939 110.257 48.8749 110.338 48.8677C111.448 48.7722 113.603 48.5066 113.844 47.8774C114.1 47.2102 114.573 44.637 114.766 43.5552C114.78 43.4754 114.894 43.4793 114.903 43.5597C115.039 44.7665 115.423 47.812 115.858 48.0971C116.273 48.3686 118.216 48.6564 119.122 48.7787C119.2 48.7892 119.203 48.903 119.125 48.9174C118.4 49.0482 117.675 49.2032 116.973 49.4289C116.619 49.5427 116.227 49.6807 115.926 49.9247C115.576 50.2085 115.5 50.5473 115.406 50.9673C115.192 51.9144 115.048 52.8798 114.906 53.84C114.895 53.9211 114.778 53.9185 114.768 53.8374C114.647 52.7765 114.3 50.5676 113.462 49.924C112.861 49.4616 111.246 49.1515 110.334 49.007Z" fill="#FFECE0"/>
<path d="M32.1454 34.9324C32.0747 34.9213 32.0786 34.8179 32.1493 34.8114C33.1122 34.7283 34.9835 34.4974 35.1929 33.9513C35.4154 33.3718 35.8265 31.1374 35.9937 30.1982C36.0061 30.1288 36.1053 30.1321 36.113 30.2021C36.2311 31.2499 36.5637 33.8944 36.9424 34.1423C37.3022 34.3784 38.9901 34.6276 39.7759 34.7336C39.844 34.7427 39.8466 34.8415 39.7785 34.8539C39.1489 34.9677 38.5193 35.1025 37.9098 35.2981C37.6025 35.3968 37.262 35.5165 37.0007 35.7284C36.6966 35.975 36.6311 36.2687 36.5488 36.6337C36.3633 37.4565 36.2382 38.2944 36.115 39.1284C36.1046 39.199 36.0035 39.1971 35.995 39.1258C35.89 38.2048 35.5878 36.2864 34.861 35.7278C34.3403 35.3275 32.9371 35.0573 32.1454 34.9324Z" fill="#FFECE0"/>
<defs>
<linearGradient id="paint0_linear_1_1062" x1="72.3385" y1="5.15979e-06" x2="72.3441" y2="148" gradientUnits="userSpaceOnUse">
<stop stop-color="#491486"/>
<stop offset="1" stop-color="#4D1988"/>
</linearGradient>
</defs>
</svg>
